<svg width="24" height="23" viewBox="0 0 24 23" fill="none" xmlns="http://www.w3.org/2000/svg">
<path d="M10.5966 20.0663L10.5959 20.0656C7.49581 17.2545 4.96317 14.9572 3.19953 12.8009C1.44162 10.6517 0.5 8.70376 0.5 6.6C0.5 3.18014 3.18014 0.5 6.6 0.5C8.53661 0.5 10.4031 1.40397 11.6193 2.83217L12 3.2792L12.3807 2.83217C13.5969 1.40397 15.4634 0.5 17.4 0.5C20.8199 0.5 23.5 3.18014 23.5 6.6C23.5 8.70377 22.5584 10.6518 20.8004 12.8026C19.0406 14.9556 16.5153 17.2504 13.4246 20.059L13.4048 20.077L13.4037 20.078L12.0013 21.345L10.5966 20.0663Z" stroke="#3C3C43" stroke-opacity="0.3"/>
</svg>
