<svg width="8" height="12" viewBox="0 0 8 12" fill="none" xmlns="http://www.w3.org/2000/svg">
<path d="M0.970711 12C1.23849 12 1.46444 11.9079 1.64854 11.7238L6.66109 6.76151C6.8954 6.53556 7.00418 6.29289 7.00418 6C7.00418 5.70711 6.8954 5.45607 6.66946 5.23849L1.64854 0.276151C1.46444 0.0920502 1.23849 0 0.970711 0C0.435146 0 0 0.426778 0 0.962343C0 1.23013 0.108787 1.4728 0.301255 1.67364L4.70293 6.00837L0.301255 10.3347C0.108787 10.5272 0 10.7699 0 11.0377C0 11.5732 0.435146 12 0.970711 12Z" fill="#3C3C43" fill-opacity="0.3"/>
</svg>
